<?xml version="1.0" encoding="utf-8"?>
<!-- Generator: Adobe Illustrator 18.0.0, SVG Export Plug-In . SVG Version: 6.00 Build 0)  -->
<!DOCTYPE svg PUBLIC "-//W3C//DTD SVG 1.1//EN" "http://www.w3.org/Graphics/SVG/1.1/DTD/svg11.dtd">
<svg version="1.1" id="Capa_1" xmlns:sketch="http://www.bohemiancoding.com/sketch/ns"
	 xmlns="http://www.w3.org/2000/svg" xmlns:xlink="http://www.w3.org/1999/xlink" x="0px" y="0px" viewBox="0 0 32 32"
	 enable-background="new 0 0 32 32" xml:space="preserve">
<title>icon 6 mail envelope closed</title>
<desc>Created with Sketch.</desc>
<path d="M27,8H6c-1.1,0-2,0.9-2,2v12c0,1.1,0.9,2,2,2h21c1.1,0,2-0.9,2-2V10C29,8.9,28.1,8,27,8z M26.5,9l-10,8.7L6.5,9H26.5z
	 M5.3,22.7C5.1,22.5,5,22.3,5,22V10c0-0.3,0.1-0.5,0.3-0.7L13,16L5.3,22.7z M6.5,23l7.3-6.3l2.7,2.3l2.7-2.3l7.3,6.3H6.5z M28,22
	c0,0.3-0.1,0.5-0.3,0.7L20,16l7.7-6.7C27.9,9.5,28,9.7,28,10V22z"/>
</svg>
